<?xml version="1.0" encoding="UTF-8"?>
<svg id="Layer_1" data-name="Layer 1" xmlns="http://www.w3.org/2000/svg" viewBox="0 0 512 512">
  <defs>
    <style>
      .cls-1 {
        fill: #fff;
        stroke-width: 0px;
      }
    </style>
  </defs>
  <path class="cls-1" d="M60.84,133.43l50.08,30.03c7.34,4.42,16.76,1.88,20.9-5.55L204.79,26.39c2.82-5.08-.85-11.39-6.68-11.39-1.51,0-3.01.47-4.33,1.32L60.09,108.01c-9.04,6.21-8.66,19.68.75,25.32v.09ZM30.06,176.64v116.36c0,7.53,9.79,10.36,13.84,4.14l56.49-86.61c4.71-7.15,2.45-16.76-4.9-21.18l-42.65-25.61c-9.98-6.03-22.78,1.22-22.78,12.9ZM307.21,26.39l73.05,131.42c4.14,7.44,13.65,9.98,20.9,5.55l50.08-30.03c9.41-5.65,9.79-19.11.75-25.32L318.23,16.32c-1.32-.85-2.82-1.32-4.33-1.32-5.84,0-9.51,6.31-6.68,11.39ZM481.94,176.64c0-11.67-12.8-18.92-22.78-12.9l-42.65,25.61c-7.34,4.42-9.51,14.03-4.9,21.18l56.49,86.61c4.05,6.31,13.84,3.39,13.84-4.14v-116.36ZM435.53,408.23l-151.19,17.79c-7.63.85-13.27,7.34-13.27,14.97v49.71c0,3.48,2.82,6.4,6.4,6.4.75,0,1.51-.09,2.26-.38l162.58-60.25c5.74-2.07,9.51-7.53,9.51-13.65,0-8.76-7.63-15.53-16.29-14.5v-.09ZM234.54,497.01c3.48,0,6.4-2.82,6.4-6.4v-49.52c0-7.63-5.74-14.03-13.27-14.97l-151.19-17.89c-8.66-1.04-16.29,5.74-16.29,14.5,0,6.12,3.77,11.58,9.51,13.65l162.58,60.25c.75.28,1.51.38,2.26.38h0ZM54.25,375.47l160.89,19.02c7.34.85,12.61-7.06,8.94-13.46l-80.68-141.21c-5.55-9.79-19.49-10.17-25.7-.75l-74.28,113.16c-6.12,9.32-.28,21.94,10.83,23.25h0ZM468.1,352.12l-73.81-112.97c-6.12-9.41-20.15-9.04-25.7.75l-80.4,140.84c-3.67,6.4,1.51,14.31,8.94,13.46l160.14-18.83c11.11-1.32,16.95-13.84,10.83-23.16v-.09ZM263.91,362.48l73.81-129.16c5.74-10.07-1.51-22.5-13.09-22.5h-137.26c-11.58,0-18.83,12.52-13.09,22.5l73.81,129.16c3.48,6.03,12.24,6.03,15.72,0h.09ZM179.18,180.69h153.64c11.49,0,18.73-12.33,13.18-22.41L270.69,22.72c-2.64-4.8-7.72-7.72-13.18-7.72h-3.01c-5.46,0-10.54,3.01-13.18,7.72l-75.31,135.56c-5.55,10.07,1.69,22.41,13.18,22.41h0Z"/>
</svg>